<?xml version="1.0" standalone="no"?><!DOCTYPE svg PUBLIC "-//W3C//DTD SVG 1.1//EN" "http://www.w3.org/Graphics/SVG/1.1/DTD/svg11.dtd"><svg t="1486433667988" class="icon" style="" viewBox="0 0 1024 1024" version="1.1" xmlns="http://www.w3.org/2000/svg" p-id="1517" xmlns:xlink="http://www.w3.org/1999/xlink" width="200" height="200"><defs><style type="text/css"></style></defs><path d="M109.714286 950.857143l164.571429 0 0-164.571429-164.571429 0 0 164.571429zm201.142857 0l182.857143 0 0-164.571429-182.857143 0 0 164.571429zm-201.142857-201.142857l164.571429 0 0-182.857143-164.571429 0 0 182.857143zm201.142857 0l182.857143 0 0-182.857143-182.857143 0 0 182.857143zm-201.142857-219.428571l164.571429 0 0-164.571429-164.571429 0 0 164.571429zm420.571429 420.571429l182.857143 0 0-164.571429-182.857143 0 0 164.571429zm-219.428571-420.571429l182.857143 0 0-164.571429-182.857143 0 0 164.571429zm438.857143 420.571429l164.571429 0 0-164.571429-164.571429 0 0 164.571429zm-219.428571-201.142857l182.857143 0 0-182.857143-182.857143 0 0 182.857143zm-201.142857-493.714286l0-164.571429q0-7.428571-5.428571-12.857143t-12.857143-5.428571l-36.571429 0q-7.428571 0-12.857143 5.428571t-5.428571 12.857143l0 164.571429q0 7.428571 5.428571 12.857143t12.857143 5.428571l36.571429 0q7.428571 0 12.857143-5.428571t5.428571-12.857143zm420.571429 493.714286l164.571429 0 0-182.857143-164.571429 0 0 182.857143zm-219.428571-219.428571l182.857143 0 0-164.571429-182.857143 0 0 164.571429zm219.428571 0l164.571429 0 0-164.571429-164.571429 0 0 164.571429zm18.285714-274.285714l0-164.571429q0-7.428571-5.428571-12.857143t-12.857143-5.428571l-36.571429 0q-7.428571 0-12.857143 5.428571t-5.428571 12.857143l0 164.571429q0 7.428571 5.428571 12.857143t12.857143 5.428571l36.571429 0q7.428571 0 12.857143-5.428571t5.428571-12.857143zm219.428571-36.571429l0 731.428571q0 29.714286-21.714286 51.428571t-51.428571 21.714286l-804.571429 0q-29.714286 0-51.428571-21.714286t-21.714286-51.428571l0-731.428571q0-29.714286 21.714286-51.428571t51.428571-21.714286l73.142857 0 0-54.857143q0-37.714286 26.857143-64.571429t64.571429-26.857143l36.571429 0q37.714286 0 64.571429 26.857143t26.857143 64.571429l0 54.857143 219.428571 0 0-54.857143q0-37.714286 26.857143-64.571429t64.571429-26.857143l36.571429 0q37.714286 0 64.571429 26.857143t26.857143 64.571429l0 54.857143 73.142857 0q29.714286 0 51.428571 21.714286t21.714286 51.428571z" p-id="1518" fill="#2c2c2c"></path></svg>