<?xml version="1.0" standalone="no"?><!DOCTYPE svg PUBLIC "-//W3C//DTD SVG 1.1//EN" "http://www.w3.org/Graphics/SVG/1.1/DTD/svg11.dtd"><svg t="1486091046494" class="icon" style="" viewBox="0 0 1536 1024" version="1.1" xmlns="http://www.w3.org/2000/svg" p-id="3752" xmlns:xlink="http://www.w3.org/1999/xlink" width="300" height="200"><defs><style type="text/css"></style></defs><path d="M761.652893 414.677686z m-25.38843 8.46281L456.991736 693.950413c-16.92562 16.92562-16.92562 33.85124 0 50.77686 16.92562 16.92562 33.85124 16.92562 50.776859 0l220.033058-211.570248v448.528925c0 16.92562 16.92562 33.85124 33.85124 33.85124s33.85124-16.92562 33.851239-33.85124V533.157025L1015.53719 736.264463c16.92562 16.92562 33.85124 16.92562 50.77686 0 16.92562-16.92562 16.92562-33.85124 0-50.77686L787.041322 423.140496h-8.46281-42.314049c8.46281 0 8.46281 0 0 0z m482.380165 482.380165c50.77686 0 101.553719-16.92562 126.942149-50.776859 33.85124-33.85124 50.77686-76.165289 50.776859-126.942149 0-42.31405-16.92562-84.628099-42.314049-118.479339-25.38843-33.85124-67.702479-50.77686-110.016529-59.239669-25.38843-8.46281-50.77686-25.38843-50.77686-59.23967 0-101.553719-42.31405-203.107438-118.479338-270.809917-76.165289-67.702479-177.719008-110.016529-287.735538-110.016529-84.628099 0-160.793388 25.38843-220.033058 59.239669-59.239669 42.31405-110.016529 101.553719-135.404958 177.719009-8.46281 16.92562-33.85124 33.85124-59.23967 33.851239-76.165289 0-135.404959 33.85124-186.181818 84.628099-42.31405 42.31405-67.702479 101.553719-67.702479 177.719009 0 76.165289 33.85124 135.404959 84.628099 186.181818 50.77686 50.77686 118.479339 76.165289 194.644628 76.165289H592.396694c33.85124 0 59.239669 25.38843 59.23967 59.23967 0 33.85124-25.38843 59.239669-59.23967 59.239669H397.752066c-110.016529 0-203.107438-42.31405-279.272727-110.016529C42.31405 837.818182 0 744.727273 0 643.173554c0-101.553719 42.31405-186.181818 110.016529-253.884298C169.256198 321.586777 245.421488 279.272727 338.512397 270.809917c42.31405-76.165289 101.553719-143.867769 177.719008-186.181818 84.628099-50.77686 177.719008-84.628099 287.735537-84.628099 143.867769 0 270.809917 59.239669 363.900827 143.867769 84.628099 76.165289 143.867769 186.181818 152.330578 304.661157 50.77686 16.92562 101.553719 50.77686 135.404959 84.628099 42.31405 59.239669 67.702479 118.479339 67.702479 194.644628 0 76.165289-33.85124 152.330579-93.090909 203.107438-50.77686 42.31405-110.016529 76.165289-186.181818 84.628099h-296.198347c-33.85124 0-59.239669-25.38843-59.23967-59.239669 0-33.85124 25.38843-59.239669 59.23967-59.23967h270.809917z" p-id="3753"></path></svg>