<?xml version="1.0" standalone="no"?><!DOCTYPE svg PUBLIC "-//W3C//DTD SVG 1.1//EN" "http://www.w3.org/Graphics/SVG/1.1/DTD/svg11.dtd"><svg t="1486092332957" class="icon" style="" viewBox="0 0 1025 1024" version="1.1" xmlns="http://www.w3.org/2000/svg" p-id="7317" xmlns:xlink="http://www.w3.org/1999/xlink" width="200.1953125" height="200"><defs><style type="text/css"></style></defs><path d="M649.179 512q0-60.562-42.862-103.424t-103.424-42.862-103.424 42.862-42.862 103.424 42.862 103.424 103.424 42.862 103.424-42.862 42.862-103.424zM941.75 449.719v126.866q0 6.839-4.571 13.129t-11.447 7.424l-105.728 16.018q-10.862 30.866-22.272 52.005 20.005 28.562 61.147 78.848 5.705 6.839 5.705 14.299t-5.157 13.129q-15.433 21.138-56.576 61.696t-53.723 40.558q-6.839 0-14.848-5.157l-78.848-61.696q-25.161 13.129-52.005 21.723-9.143 77.714-16.567 106.277-3.986 16.018-20.553 16.018h-126.866q-8.009 0-14.007-4.864t-6.583-12.288l-16.018-105.143q-28.014-9.143-51.419-21.138l-80.567 61.147q-5.705 5.157-14.299 5.157-8.009 0-14.299-6.29-72.009-65.134-94.281-96-3.986-5.705-3.986-13.129 0-6.839 4.571-13.129 8.558-11.995 29.147-37.998t30.866-40.302q-15.433-28.562-23.442-56.576l-104.558-15.433q-7.424-1.134-11.995-7.131t-4.571-13.422v-126.866q0-6.839 4.571-13.129t10.862-7.424l106.277-16.018q8.009-26.295 22.272-52.553-22.857-32.585-61.147-78.848-5.705-6.839-5.705-13.714 0-5.705 5.157-13.129 14.848-20.553 56.283-61.44t54.016-40.85q7.424 0 14.848 5.705l78.848 61.147q25.161-13.129 52.005-21.723 9.143-77.714 16.567-106.277 3.986-15.982 20.553-15.982h126.866q8.009 0 14.007 4.864t6.583 12.288l16.018 105.143q28.014 9.143 51.419 21.138l81.152-61.147q5.157-5.157 13.714-5.157 7.424 0 14.299 5.705 73.728 67.986 94.281 97.134 3.986 4.571 3.986 12.581 0 6.839-4.571 13.129-8.558 11.995-29.147 37.998t-30.866 40.302q14.848 28.562 23.442 55.991l104.558 16.018q7.424 1.134 11.995 7.131t4.571 13.422z" p-id="7318"></path></svg>