<?xml version="1.0" standalone="no"?><!DOCTYPE svg PUBLIC "-//W3C//DTD SVG 1.1//EN" "http://www.w3.org/Graphics/SVG/1.1/DTD/svg11.dtd"><svg t="1486091754726" class="icon" style="" viewBox="0 0 1024 1024" version="1.1" xmlns="http://www.w3.org/2000/svg" p-id="5899" xmlns:xlink="http://www.w3.org/1999/xlink" width="200" height="200"><defs><style type="text/css"></style></defs><path d="M301.504 589.984l-94.08 241.44 237.28-98.24-143.2-143.2zM990.24 74.304l-30.112-30.112c-33.216-33.248-87.168-33.248-120.416 0l-60.224 60.224 150.528 150.56 60.224-60.224c33.312-33.248 33.312-87.2 0-120.48zM306.272 577.664l21.536-21.536 150.528 150.528 421.568-421.568-150.528-150.528 30.112-30.144-473.248 473.28zM826.272 922.016l-725.024 0.256 0.128-725.024 507.648-0.16 79.552-84.32-630.464 0c-23.52 0-42.592 19.04-42.592 42.592l0 809.088c0 23.552 19.072 42.592 42.592 42.592l809.088 0c23.552 0 42.592-19.04 42.592-42.592l0-598.656-85.792 84.192 2.304 472.032z" p-id="5900"></path></svg>