<?xml version="1.0" standalone="no"?><!DOCTYPE svg PUBLIC "-//W3C//DTD SVG 1.1//EN" "http://www.w3.org/Graphics/SVG/1.1/DTD/svg11.dtd"><svg t="1486092126797" class="icon" style="" viewBox="0 0 1024 1024" version="1.1" xmlns="http://www.w3.org/2000/svg" p-id="6607" xmlns:xlink="http://www.w3.org/1999/xlink" width="200" height="200"><defs><style type="text/css"></style></defs><path d="M57.563 55.081v911.355h911.355v-911.355h-911.355zM223.264 883.587h-82.851v-82.851h82.851v82.851zM223.264 759.311h-82.851v-82.851h82.851v82.851zM223.264 635.034h-82.851v-82.851h82.851v82.851zM223.264 469.334h-82.851v-82.851h82.851v82.851zM223.264 345.058h-82.851v-82.851h82.851v82.851zM223.264 220.783h-82.851v-82.851h82.851v82.851zM720.366 883.587h-414.253v-331.402h414.253v331.402zM720.366 469.334h-414.253v-331.402h414.253v331.402zM886.068 883.587h-82.851v-82.851h82.851v82.851zM886.068 759.311h-82.851v-82.851h82.851v82.851zM886.068 635.034h-82.851v-82.851h82.851v82.851zM886.068 469.334h-82.851v-82.851h82.851v82.851zM886.068 345.058h-82.851v-82.851h82.851v82.851zM886.068 220.783h-82.851v-82.851h82.851v82.851z" p-id="6608"></path></svg>