<?xml version="1.0" standalone="no"?><!DOCTYPE svg PUBLIC "-//W3C//DTD SVG 1.1//EN" "http://www.w3.org/Graphics/SVG/1.1/DTD/svg11.dtd"><svg t="1487232591351" class="icon" style="" viewBox="0 0 1024 1024" version="1.1" xmlns="http://www.w3.org/2000/svg" p-id="1995" xmlns:xlink="http://www.w3.org/1999/xlink" width="32" height="32"><defs><style type="text/css"></style></defs><path d="M768 224c26.512 0 48-21.488 48-48L816 48c0-26.512-21.488-48-48-48s-48 21.488-48 48l0 128C720 202.512 741.488 224 768 224zM976 128l-96 0 0 48c0 61.856-50.144 112-112 112s-112-50.144-112-112L656 128 368 128l0 48c0 61.856-50.144 112-112 112s-112-50.144-112-112L144 128 48 128c-26.512 0-48 21.488-48 48l0 800c0 26.512 21.488 48 48 48l928 0c26.512 0 48-21.488 48-48L1024 176C1024 149.488 1002.512 128 976 128zM928 928 96 928 96 384l832 0L928 928zM256 224c26.512 0 48-21.488 48-48L304 48c0-26.512-21.488-48-48-48s-48 21.488-48 48l0 128C208 202.512 229.488 224 256 224zM421.776 634.112c-5.968 5.552-12.56 10.608-19.76 15.184-7.216 4.576-14 9.072-20.384 13.52-12.48 8.608-24.336 17.056-35.568 25.376-11.232 8.336-21.008 17.408-29.328 27.248s-14.912 20.992-19.76 33.504c-4.864 12.464-7.28 27.168-7.28 44.096L503.52 793.04l0-50.752-137.696 0c7.216-10 15.52-18.72 24.96-26.224 9.424-7.488 19.136-14.464 29.12-20.992 9.984-6.512 19.904-13.104 29.744-19.76 9.84-6.656 18.656-14.08 26.416-22.272 7.76-8.16 14-17.536 18.72-28.064 4.704-10.56 7.072-23.152 7.072-37.872 0-14.128-2.704-26.88-8.112-38.272-5.408-11.36-12.688-20.928-21.84-28.704-9.152-7.76-19.76-13.728-31.824-17.888C428.016 498.08 415.328 496 402.016 496c-17.472 0-32.928 2.992-46.384 8.944-13.456 5.968-24.624 14.288-33.488 24.96-8.88 10.672-15.536 23.152-19.968 37.44-4.432 14.288-6.384 29.744-5.824 46.368l56.576 0c0-7.744 0.768-15.6 2.288-23.504 1.52-7.904 4.08-15.12 7.696-21.632 3.6-6.512 8.384-11.792 14.352-15.808s13.248-6.032 21.84-6.032c12.752 0 23.232 3.952 31.408 11.856 8.176 7.904 12.272 18.928 12.272 33.072 0 8.88-2.016 16.784-6.032 23.696C432.72 622.32 427.728 628.56 421.776 634.112zM663.472 732.912c-4.304 5.136-9.568 9.312-15.808 12.48-6.24 3.184-13.248 4.784-20.992 4.784-13.312 0-24.288-3.952-32.88-11.856-8.576-7.904-13.6-18.496-14.976-31.808l-59.072 0c0.272 15.248 3.376 28.624 9.344 40.144 5.968 11.504 13.936 21.136 23.936 28.928 9.968 7.744 21.408 13.504 34.32 17.248s26.4 5.632 40.56 5.632c14.704 0.272 28.56-2.16 41.6-7.28 13.04-5.136 24.464-12.416 34.32-21.84s17.68-20.592 23.52-33.504c5.824-12.88 8.736-26.816 8.736-41.792 0-13.584-2.016-26.416-6.032-38.48-4.032-12.064-9.84-22.528-17.472-31.408s-16.992-15.952-28.096-21.216c-11.072-5.248-23.84-7.904-38.256-7.904-11.664 0-22.064 1.744-31.216 5.216-9.136 3.472-17.728 9.2-25.776 17.248l-0.848-0.832 11.664-66.144 120.224 0 0-48.672L557.6 501.856l-28.688 160.992 53.232 0c5.824-8.048 12.08-13.936 18.736-17.68 6.656-3.728 15.232-5.6 25.776-5.6 8.048 0 15.12 1.376 21.216 4.16 6.096 2.752 11.376 6.656 15.808 11.648 4.416 4.992 7.744 10.816 9.968 17.472 2.24 6.656 3.344 13.728 3.344 21.216 0 7.216-1.184 14.24-3.552 21.008C671.088 721.824 667.744 727.776 663.472 732.912z" p-id="1996" fill="#41aca7"></path></svg>